<svg width="1440" height="198" viewBox="0 0 1440 198" fill="none" xmlns="http://www.w3.org/2000/svg">
<g clip-path="url(#clip0_1148_2)">
<g clip-path="url(#clip1_1148_2)">
<mask id="mask0_1148_2" style="mask-type:luminance" maskUnits="userSpaceOnUse" x="0" y="10" width="176" height="177">
<path d="M176 10.8125H0V186.812H176V10.8125Z" fill="white"/>
</mask>
<g mask="url(#mask0_1148_2)">
<g filter="url(#filter0_d_1148_2)">
<path d="M0 98.8125C0 68.0098 0 52.608 5.99466 40.843C11.2677 30.4941 19.6816 22.0802 30.0305 16.8072C41.7955 10.8125 57.1973 10.8125 88 10.8125C118.803 10.8125 134.204 10.8125 145.969 16.8072C156.318 22.0802 164.732 30.4941 170.005 40.843C176 52.608 176 68.0098 176 98.8125C176 129.615 176 145.017 170.005 156.782C164.732 167.131 156.318 175.545 145.969 180.818C134.204 186.812 118.803 186.812 88 186.812C57.1973 186.812 41.7955 186.812 30.0305 180.818C19.6816 175.545 11.2677 167.131 5.99466 156.782C0 145.017 0 129.615 0 98.8125Z" fill="#050505"/>
<path d="M88 11.6719C103.415 11.6719 114.926 11.6727 124.054 12.4185C133.172 13.1634 139.838 14.6474 145.579 17.5727C155.767 22.7633 164.049 31.0459 169.24 41.233C172.165 46.9743 173.649 53.6403 174.394 62.7586C175.14 71.8869 175.141 83.397 175.141 98.8125C175.141 114.228 175.14 125.738 174.394 134.866C173.649 143.985 172.165 150.651 169.24 156.392C164.049 166.579 155.767 174.862 145.579 180.052C139.838 182.978 133.172 184.462 124.054 185.207C114.926 185.952 103.415 185.953 88 185.953C72.5845 185.953 61.0744 185.952 51.9461 185.207C42.8278 184.462 36.1618 182.978 30.4205 180.052C20.2334 174.862 11.9508 166.579 6.76019 156.392C3.83488 150.651 2.35094 143.985 1.60596 134.866C0.860159 125.738 0.859375 114.228 0.859375 98.8125C0.859375 83.397 0.860159 71.8869 1.60596 62.7586C2.35094 53.6403 3.83488 46.9743 6.76019 41.233C11.9508 31.0459 20.2334 22.7633 30.4205 17.5727C36.1618 14.6474 42.8278 13.1634 51.9461 12.4185C61.0744 11.6727 72.5845 11.6719 88 11.6719Z" stroke="#CA774B" stroke-opacity="0.05" stroke-width="5"/>
</g>
</g>
<path d="M60.1875 69.612C60.1151 73.7765 57.7361 77.2786 53.9625 78.7302C51.7878 79.566 49.5017 79.7078 47.1766 79.4392C43.2915 78.9895 40.0546 76.6946 38.3256 73.1738C36.9328 70.3359 36.4759 67.2872 36.4722 64.0949C36.4666 59.5796 37.4565 55.2659 39.7333 51.3869C42.5598 46.5713 47.4161 42.3602 53.1268 42.4386C54.7759 42.461 56.1316 43.5599 56.4306 45.0432C56.737 46.5638 55.9682 48.2113 54.423 48.7841C51.8936 49.7226 50.1108 51.6929 49.602 54.417C49.3048 56.0122 49.4497 57.7642 50.5974 58.99C51.3551 59.7979 52.4396 60.0797 53.4555 60.3931C57.5411 61.6544 60.2655 65.1696 60.1894 69.6083L60.1875 69.612Z" fill="white"/>
<path d="M91.7791 70.3264C91.416 74.714 88.5112 78.1484 84.3412 79.1576C82.1904 79.678 80.0341 79.6948 77.8593 79.2191C72.8556 78.1241 69.7193 73.854 68.8764 68.8676C68.1687 64.6833 68.2892 60.4506 69.4914 56.3633C71.5403 49.3976 77.3202 42.4375 84.7414 42.4375C86.3938 42.4375 87.7665 43.5885 88.0648 45.0007C88.4168 46.6684 87.5646 48.3082 85.9492 48.8547C82.3405 50.0748 80.4528 53.9867 81.292 57.2811C81.7069 58.9097 82.9018 59.8517 84.4728 60.236C89.1485 61.3852 92.1885 65.3698 91.7791 70.3227V70.3264Z" fill="white"/>
<rect x="36.4375" y="102.594" width="103.125" height="11" rx="5.5" fill="white"/>
<rect x="36.4532" y="123.219" width="92.125" height="11" rx="5.5" fill="white"/>
<rect x="36.4838" y="143.844" width="73.842" height="11" rx="5.5" transform="rotate(0.241067 36.4838 143.844)" fill="white"/>
</g>
<path d="M334.042 154.583H311.979C308.74 154.583 305.417 154.286 302 153.688C298.594 153.094 295.344 151.99 292.25 150.375C289.151 148.75 286.385 146.411 283.958 143.354C281.526 140.286 279.589 136.307 278.146 131.417C276.714 126.531 276 120.495 276 113.312V68.0417V46.1042V14.3333L301.521 14.125V46.1042V68.0417V114.479C301.521 119.552 302.255 123.458 303.729 126.208C305.214 128.948 307.172 130.828 309.604 131.854C312.031 132.87 314.583 133.375 317.25 133.375H334.042V154.583Z" fill="black"/>
<path d="M389.307 157.854C381.067 157.854 373.463 156.38 366.494 153.437C359.536 150.479 353.504 146.365 348.411 141.083C343.312 135.807 339.353 129.687 336.536 122.729C333.728 115.76 332.327 108.292 332.327 100.333C332.327 92.3906 333.728 84.9531 336.536 78.0208C339.353 71.0937 343.312 64.9896 348.411 59.7083C353.504 54.4323 359.536 50.3021 366.494 47.3125C373.463 44.3281 381.103 42.8333 389.411 42.8333C397.786 42.8333 405.452 44.3281 412.411 47.3125C419.379 50.3021 425.432 54.4323 430.557 59.7083C435.692 64.9896 439.666 71.0937 442.473 78.0208C445.291 84.9531 446.702 92.3906 446.702 100.333C446.702 108.365 445.291 115.844 442.473 122.771C439.666 129.703 435.692 135.807 430.557 141.083C425.432 146.365 419.369 150.479 412.369 153.437C405.369 156.38 397.682 157.854 389.307 157.854ZM389.515 134.104C395.64 134.104 401.088 132.646 405.869 129.729C410.661 126.812 414.442 122.823 417.223 117.75C419.999 112.682 421.39 106.875 421.39 100.333C421.39 93.7916 419.999 87.9739 417.223 82.875C414.442 77.7812 410.661 73.7708 405.869 70.8541C401.088 67.9271 395.64 66.4583 389.515 66.4583C383.458 66.4583 378.02 67.9271 373.202 70.8541C368.379 73.7708 364.583 77.7812 361.807 82.875C359.025 87.9739 357.64 93.7916 357.64 100.333C357.64 106.875 359.025 112.682 361.807 117.75C364.583 122.823 368.379 126.812 373.202 129.729C378.02 132.646 383.458 134.104 389.515 134.104Z" fill="black"/>
<path d="M479.817 191.625H454.275V46.1042H478.546V64.3542C482.489 57.8125 487.734 52.6146 494.275 48.75C500.817 44.875 507.989 42.9375 515.796 42.9375C523.546 42.9375 530.635 44.4323 537.067 47.4167C543.51 50.4063 549.088 54.5208 553.796 59.7708C558.504 65.0104 562.155 71.0938 564.754 78.0208C567.364 84.9531 568.671 92.3906 568.671 100.333C568.671 108.292 567.364 115.76 564.754 122.729C562.155 129.688 558.484 135.807 553.734 141.083C548.994 146.365 543.442 150.479 537.067 153.438C530.702 156.38 523.723 157.854 516.129 157.854C510.848 157.854 505.848 156.99 501.129 155.271C496.421 153.552 492.197 151.125 488.463 148C484.739 144.865 481.682 141.219 479.296 137.062L479.817 149.625V191.625ZM511.484 134.312C517.244 134.312 522.536 132.948 527.359 130.208C532.176 127.458 536.046 123.536 538.963 118.438C541.89 113.344 543.359 107.307 543.359 100.333C543.359 93.5156 541.911 87.5781 539.025 82.5208C536.135 77.4531 532.28 73.5104 527.463 70.6875C522.64 67.8698 517.28 66.4583 511.379 66.4583C506.947 66.4583 502.807 67.3281 498.963 69.0625C495.129 70.7865 491.754 73.1979 488.838 76.2917C485.921 79.375 483.635 82.9583 481.984 87.0417C480.327 91.125 479.504 95.5573 479.504 100.333C479.504 105.266 480.343 109.807 482.025 113.958C483.718 118.115 486.046 121.719 489.004 124.771C491.963 127.828 495.369 130.182 499.234 131.833C503.109 133.49 507.192 134.312 511.484 134.312Z" fill="black"/>
<path d="M601.781 154.583H576.239V6H601.781V50.2083L601.156 62.3542C604.531 56.4375 609.364 51.7083 615.656 48.1667C621.958 44.6146 629.26 42.8333 637.552 42.8333C652.12 42.8333 663.021 47.4583 670.26 56.7083C677.51 65.9583 681.135 79.099 681.135 96.125V154.583H655.593V96.6458C655.593 85.8854 653.343 78.1458 648.843 73.4375C644.343 68.7188 638.224 66.3542 630.489 66.3542C626.75 66.3542 623.161 67.1458 619.718 68.7292C616.271 70.3125 613.198 72.5521 610.489 75.4375C607.781 78.3281 605.646 81.7917 604.093 85.8333C602.552 89.875 601.781 94.3281 601.781 99.1875V154.583Z" fill="black"/>
<path d="M744.857 157.854C736.617 157.854 729.013 156.38 722.044 153.437C715.086 150.479 709.055 146.365 703.961 141.083C698.862 135.807 694.904 129.687 692.086 122.729C689.279 115.76 687.878 108.292 687.878 100.333C687.878 92.3906 689.279 84.9531 692.086 78.0208C694.904 71.0937 698.862 64.9896 703.961 59.7083C709.055 54.4323 715.086 50.3021 722.044 47.3125C729.013 44.3281 736.654 42.8333 744.961 42.8333C753.336 42.8333 761.003 44.3281 767.961 47.3125C774.93 50.3021 780.982 54.4323 786.107 59.7083C791.242 64.9896 795.216 71.0937 798.023 78.0208C800.841 84.9531 802.253 92.3906 802.253 100.333C802.253 108.365 800.841 115.844 798.023 122.771C795.216 129.703 791.242 135.807 786.107 141.083C780.982 146.365 774.919 150.479 767.919 153.437C760.919 156.38 753.232 157.854 744.857 157.854ZM745.065 134.104C751.19 134.104 756.638 132.646 761.419 129.729C766.211 126.812 769.992 122.823 772.773 117.75C775.549 112.682 776.94 106.875 776.94 100.333C776.94 93.7916 775.549 87.9739 772.773 82.875C769.992 77.7812 766.211 73.7708 761.419 70.8541C756.638 67.9271 751.19 66.4583 745.065 66.4583C739.008 66.4583 733.57 67.9271 728.753 70.8541C723.93 73.7708 720.133 77.7812 717.357 82.875C714.575 87.9739 713.19 93.7916 713.19 100.333C713.19 106.875 714.575 112.682 717.357 117.75C720.133 122.823 723.93 126.812 728.753 129.729C733.57 132.646 739.008 134.104 745.065 134.104Z" fill="black"/>
<path d="M848.888 157.854C840.93 157.854 834.013 156.797 828.138 154.687C822.263 152.578 817.409 149.729 813.576 146.146C809.742 142.552 806.893 138.5 805.034 134C803.169 129.5 802.242 124.865 802.242 120.083L826.721 120.187C826.93 125.104 828.893 129.24 832.617 132.583C836.352 135.917 841.846 137.583 849.096 137.583C855.706 137.583 860.576 136.323 863.701 133.792C866.836 131.266 868.409 127.958 868.409 123.875C868.409 120.781 867.523 118.354 865.763 116.604C863.997 114.844 861.409 113.453 857.992 112.437C854.586 111.411 850.419 110.542 845.492 109.833C840.294 109.141 835.357 108.057 830.68 106.583C825.997 105.099 821.857 103.057 818.263 100.458C814.68 97.8489 811.846 94.5781 809.763 90.6458C807.69 86.7031 806.659 81.9114 806.659 76.2708C806.659 69.5937 808.221 63.7604 811.346 58.7708C814.482 53.7708 819.096 49.8698 825.18 47.0625C831.263 44.2448 838.706 42.8333 847.513 42.8333C856.232 42.8333 863.878 44.2916 870.451 47.2083C877.034 50.125 882.148 54.2083 885.805 59.4583C889.471 64.6979 891.305 70.7604 891.305 77.6458L866.284 77.4375C866.003 73.4271 864.294 70.1406 861.159 67.5833C858.034 65.0156 853.518 63.7291 847.617 63.7291C842.128 63.7291 838.117 64.9114 835.576 67.2708C833.044 69.6198 831.784 72.4479 831.784 75.75C831.784 78.4323 832.378 80.5989 833.576 82.25C834.768 83.9062 836.997 85.2812 840.263 86.375C843.539 87.4583 848.273 88.4948 854.471 89.4791C860.096 90.3125 865.331 91.4375 870.18 92.8541C875.039 94.2604 879.284 96.1771 882.909 98.6041C886.534 101.036 889.367 104.167 891.409 108C893.451 111.833 894.471 116.635 894.471 122.396C894.471 130.344 892.477 136.937 888.492 142.187C884.518 147.427 879.102 151.349 872.242 153.958C865.393 156.552 857.607 157.854 848.888 157.854Z" fill="black"/>
<path d="M964.373 154.583H938.832V46.1041H963.102V62.9791C965.212 59.0521 968.092 55.5729 971.748 52.5416C975.415 49.5156 979.67 47.1406 984.519 45.4166C989.378 43.6979 994.587 42.8333 1000.14 42.8333C1014.71 42.8333 1025.61 47.4583 1032.85 56.7083C1040.1 65.9583 1043.73 79.0989 1043.73 96.125V154.583H1018.19V96.6458C1018.19 85.8854 1015.94 78.1458 1011.44 73.4375C1006.94 68.7187 1000.82 66.3541 993.082 66.3541C988.082 66.3541 983.399 67.625 979.04 70.1666C974.675 72.6979 971.144 76.3906 968.436 81.25C965.727 86.0989 964.373 92.0781 964.373 99.1875V154.583Z" fill="black"/>
<path d="M1107.45 157.854C1099.21 157.854 1091.61 156.38 1084.64 153.437C1077.68 150.479 1071.65 146.365 1066.55 141.083C1061.45 135.807 1057.5 129.687 1054.68 122.729C1051.87 115.76 1050.47 108.292 1050.47 100.333C1050.47 92.3906 1051.87 84.9531 1054.68 78.0208C1057.5 71.0937 1061.45 64.9896 1066.55 59.7083C1071.65 54.4323 1077.68 50.3021 1084.64 47.3125C1091.61 44.3281 1099.25 42.8333 1107.55 42.8333C1115.93 42.8333 1123.59 44.3281 1130.55 47.3125C1137.52 50.3021 1143.57 54.4323 1148.7 59.7083C1153.83 64.9896 1157.81 71.0937 1160.62 78.0208C1163.43 84.9531 1164.84 92.3906 1164.84 100.333C1164.84 108.365 1163.43 115.844 1160.62 122.771C1157.81 129.703 1153.83 135.807 1148.7 141.083C1143.57 146.365 1137.51 150.479 1130.51 153.437C1123.51 156.38 1115.82 157.854 1107.45 157.854ZM1107.66 134.104C1113.78 134.104 1119.23 132.646 1124.01 129.729C1128.8 126.812 1132.58 122.823 1135.37 117.75C1138.14 112.682 1139.53 106.875 1139.53 100.333C1139.53 93.7916 1138.14 87.9739 1135.37 82.875C1132.58 77.7812 1128.8 73.7708 1124.01 70.8541C1119.23 67.9271 1113.78 66.4583 1107.66 66.4583C1101.6 66.4583 1096.16 67.9271 1091.34 70.8541C1086.52 73.7708 1082.73 77.7812 1079.95 82.875C1077.17 87.9739 1075.78 93.7916 1075.78 100.333C1075.78 106.875 1077.17 112.682 1079.95 117.75C1082.73 122.823 1086.52 126.812 1091.34 129.729C1096.16 132.646 1101.6 134.104 1107.66 134.104Z" fill="black"/>
<path d="M1239.13 154.583H1217.06C1213.82 154.583 1210.5 154.286 1207.08 153.688C1203.68 153.094 1200.43 151.99 1197.33 150.375C1194.24 148.75 1191.47 146.411 1189.04 143.354C1186.61 140.286 1184.67 136.307 1183.23 131.417C1181.8 126.531 1181.08 120.495 1181.08 113.312V68.0417H1158.61V46.1042H1181.08V14.3333L1206.61 14.125V46.1042H1239.13V68.0417H1206.61V114.479C1206.61 119.552 1207.34 123.458 1208.81 126.208C1210.3 128.948 1212.26 130.828 1214.69 131.854C1217.12 132.87 1219.67 133.375 1222.33 133.375H1239.13V154.583Z" fill="black"/>
<path d="M1348.31 98.4375C1348.31 99.7708 1348.27 101.042 1348.2 102.25C1348.13 103.448 1348 105.062 1347.79 107.104H1263.04C1263.95 113.01 1265.83 118.036 1268.68 122.187C1271.54 126.344 1275.08 129.531 1279.29 131.75C1283.51 133.958 1288.12 135.062 1293.12 135.062C1299.59 135.062 1304.83 133.781 1308.85 131.208C1312.86 128.641 1315.78 125.073 1317.6 120.5H1345.47C1344.13 125.349 1341.92 130.031 1338.87 134.542C1335.81 139.042 1332.06 143.036 1327.62 146.521C1323.19 149.995 1318.1 152.75 1312.37 154.792C1306.65 156.833 1300.4 157.854 1293.64 157.854C1285.48 157.854 1277.98 156.359 1271.12 153.375C1264.26 150.375 1258.31 146.245 1253.29 140.979C1248.26 135.703 1244.35 129.583 1241.58 122.625C1238.8 115.656 1237.41 108.224 1237.41 100.333C1237.41 92.3906 1238.8 84.9531 1241.58 78.0208C1244.35 71.0937 1248.26 64.9896 1253.29 59.7083C1258.31 54.4323 1264.26 50.3021 1271.12 47.3125C1277.98 44.3281 1285.48 42.8333 1293.64 42.8333C1301.81 42.8333 1309.25 44.3125 1315.95 47.2708C1322.67 50.2187 1328.44 54.2812 1333.27 59.4583C1338.08 64.625 1341.79 70.5521 1344.39 77.2291C1347 83.9114 1348.31 90.9791 1348.31 98.4375ZM1264.1 87.3541H1322.25C1321.9 83.2864 1320.38 79.5781 1317.7 76.2291C1315.04 72.8854 1311.59 70.1979 1307.37 68.1666C1303.15 66.125 1298.54 65.1041 1293.54 65.1041C1289.25 65.1041 1285.13 65.8958 1281.18 67.4791C1277.25 69.0521 1273.79 71.4739 1270.79 74.75C1267.8 78.0312 1265.57 82.2291 1264.1 87.3541Z" fill="black"/>
<path d="M1393.46 157.854C1385.5 157.854 1378.59 156.797 1372.71 154.687C1366.84 152.578 1361.98 149.729 1358.15 146.146C1354.32 142.552 1351.47 138.5 1349.61 134C1347.74 129.5 1346.82 124.865 1346.82 120.083L1371.3 120.187C1371.5 125.104 1373.47 129.24 1377.19 132.583C1380.93 135.917 1386.42 137.583 1393.67 137.583C1400.28 137.583 1405.15 136.323 1408.27 133.792C1411.41 131.266 1412.98 127.958 1412.98 123.875C1412.98 120.781 1412.1 118.354 1410.34 116.604C1408.57 114.844 1405.98 113.453 1402.57 112.437C1399.16 111.411 1394.99 110.542 1390.07 109.833C1384.87 109.141 1379.93 108.057 1375.25 106.583C1370.57 105.099 1366.43 103.057 1362.84 100.458C1359.25 97.8489 1356.42 94.5781 1354.34 90.6458C1352.26 86.7031 1351.23 81.9114 1351.23 76.2708C1351.23 69.5937 1352.8 63.7604 1355.92 58.7708C1359.06 53.7708 1363.67 49.8698 1369.75 47.0625C1375.84 44.2448 1383.28 42.8333 1392.09 42.8333C1400.81 42.8333 1408.45 44.2916 1415.02 47.2083C1421.61 50.125 1426.72 54.2083 1430.38 59.4583C1434.05 64.6979 1435.88 70.7604 1435.88 77.6458L1410.86 77.4375C1410.58 73.4271 1408.87 70.1406 1405.73 67.5833C1402.61 65.0156 1398.09 63.7291 1392.19 63.7291C1386.7 63.7291 1382.69 64.9114 1380.15 67.2708C1377.62 69.6198 1376.36 72.4479 1376.36 75.75C1376.36 78.4323 1376.95 80.5989 1378.15 82.25C1379.34 83.9062 1381.57 85.2812 1384.84 86.375C1388.11 87.4583 1392.85 88.4948 1399.05 89.4791C1404.67 90.3125 1409.91 91.4375 1414.75 92.8541C1419.61 94.2604 1423.86 96.1771 1427.48 98.6041C1431.11 101.036 1433.94 104.167 1435.98 108C1438.02 111.833 1439.05 116.635 1439.05 122.396C1439.05 130.344 1437.05 136.937 1433.07 142.187C1429.09 147.427 1423.68 151.349 1416.82 153.958C1409.97 156.552 1402.18 157.854 1393.46 157.854Z" fill="black"/>
</g>
<defs>
<filter id="filter0_d_1148_2" x="-33.6406" y="-22.8281" width="243.281" height="243.281" filterUnits="userSpaceOnUse" color-interpolation-filters="sRGB">
<feFlood flood-opacity="0" result="BackgroundImageFix"/>
<feColorMatrix in="SourceAlpha" type="matrix" values="0 0 0 0 0 0 0 0 0 0 0 0 0 0 0 0 0 0 127 0" result="hardAlpha"/>
<feOffset dy="2"/>
<feGaussianBlur stdDeviation="12"/>
<feComposite in2="hardAlpha" operator="out"/>
<feColorMatrix type="matrix" values="0 0 0 0 0 0 0 0 0 0 0 0 0 0 0 0 0 0 0.16 0"/>
<feBlend mode="normal" in2="BackgroundImageFix" result="effect1_dropShadow_1148_2"/>
<feBlend mode="normal" in="SourceGraphic" in2="effect1_dropShadow_1148_2" result="shape"/>
</filter>
<clipPath id="clip0_1148_2">
<rect width="1439.05" height="197.625" fill="white"/>
</clipPath>
<clipPath id="clip1_1148_2">
<rect width="176" height="176" fill="white" transform="translate(0 10.8125)"/>
</clipPath>
</defs>
</svg>
